<svg xmlns="http://www.w3.org/2000/svg" viewBox="0 0 349 349" role="img" aria-label="batch0"><rect width="349" height="349" fill="#0C0C0D"/><g fill="#FFBB00"><rect x="47" y="65" width="31" height="188"/><rect x="78" y="66" width="1" height="29"/><rect x="46" y="68" width="1" height="24"/><rect x="79" y="72" width="1" height="17"/><rect x="78" y="97" width="1" height="30"/><rect x="46" y="100" width="1" height="23"/><rect x="79" y="104" width="1" height="16"/><rect x="78" y="128" width="1" height="30"/><rect x="94" y="128" width="47" height="31"/><rect x="46" y="131" width="1" height="24"/><rect x="93" y="131" width="1" height="24"/><rect x="141" y="131" width="1" height="24"/><rect x="79" y="135" width="1" height="17"/><rect x="78" y="159" width="16" height="31"/><rect x="125" y="159" width="32" height="31"/><rect x="46" y="162" width="1" height="24"/><rect x="94" y="162" width="1" height="25"/><rect x="124" y="164" width="1" height="20"/><rect x="157" y="164" width="1" height="21"/><rect x="95" y="173" width="1" height="3"/><rect x="78" y="190" width="1" height="31"/><rect x="141" y="190" width="31" height="32"/><rect x="172" y="191" width="1" height="29"/><rect x="46" y="193" width="1" height="24"/><rect x="140" y="193" width="1" height="25"/><rect x="79" y="198" width="1" height="16"/><rect x="173" y="199" width="1" height="13"/><rect x="139" y="205" width="1" height="1"/><rect x="78" y="222" width="1" height="30"/><rect x="125" y="222" width="32" height="31"/><rect x="46" y="225" width="1" height="24"/><rect x="124" y="227" width="1" height="20"/><rect x="157" y="227" width="1" height="20"/><rect x="79" y="229" width="1" height="17"/><rect x="47" y="253" width="16" height="31"/><rect x="78" y="253" width="47" height="31"/><rect x="125" y="254" width="1" height="29"/><rect x="46" y="256" width="1" height="24"/><rect x="63" y="258" width="1" height="21"/><rect x="77" y="259" width="1" height="19"/><rect x="126" y="262" width="1" height="13"/><rect x="231" y="65" width="39" height="31"/><rect x="230" y="66" width="1" height="29"/><rect x="270" y="69" width="1" height="23"/><rect x="229" y="74" width="1" height="13"/><rect x="211" y="97" width="20" height="156"/><rect x="270" y="97" width="20" height="125"/><rect x="269" y="99" width="1" height="26"/><rect x="210" y="100" width="1" height="23"/><rect x="231" y="101" width="1" height="21"/><rect x="290" y="104" width="1" height="16"/><rect x="268" y="107" width="1" height="7"/><rect x="199" y="128" width="12" height="93"/><rect x="290" y="128" width="11" height="94"/><rect x="269" y="130" width="1" height="26"/><rect x="301" y="130" width="1" height="26"/><rect x="198" y="133" width="1" height="20"/><rect x="231" y="133" width="1" height="21"/><rect x="268" y="139" width="1" height="6"/><rect x="302" y="139" width="1" height="7"/><rect x="269" y="161" width="1" height="27"/><rect x="301" y="161" width="1" height="27"/><rect x="231" y="164" width="1" height="21"/><rect x="198" y="165" width="1" height="19"/><rect x="268" y="170" width="1" height="7"/><rect x="302" y="170" width="1" height="7"/><rect x="269" y="192" width="1" height="27"/><rect x="301" y="192" width="1" height="27"/><rect x="231" y="195" width="1" height="21"/><rect x="198" y="196" width="1" height="19"/><rect x="268" y="202" width="1" height="6"/><rect x="302" y="202" width="1" height="7"/><rect x="200" y="221" width="11" height="1"/><rect x="270" y="222" width="19" height="31"/><rect x="289" y="223" width="1" height="29"/><rect x="269" y="224" width="1" height="26"/><rect x="210" y="225" width="1" height="24"/><rect x="231" y="227" width="1" height="21"/><rect x="290" y="229" width="1" height="16"/><rect x="268" y="233" width="1" height="6"/><rect x="231" y="253" width="39" height="31"/><rect x="230" y="254" width="1" height="29"/><rect x="270" y="257" width="1" height="22"/><rect x="229" y="262" width="1" height="12"/></g></svg>
