<svg xmlns="http://www.w3.org/2000/svg" viewBox="0 0 899 219" fill="currentColor" role="img" aria-label="batch0"><rect x="1" y="0" width="31" height="188"/><rect x="345" y="0" width="32" height="31"/><rect x="627" y="0" width="32" height="31"/><rect x="827" y="0" width="39" height="31"/><rect x="32" y="1" width="1" height="29"/><rect x="826" y="1" width="1" height="29"/><rect x="0" y="3" width="1" height="24"/><rect x="626" y="4" width="1" height="23"/><rect x="866" y="4" width="1" height="23"/><rect x="377" y="5" width="1" height="21"/><rect x="344" y="6" width="1" height="19"/><rect x="33" y="7" width="1" height="17"/><rect x="659" y="7" width="1" height="17"/><rect x="825" y="9" width="1" height="13"/><rect x="346" y="31" width="31" height="157"/><rect x="627" y="31" width="31" height="188"/><rect x="32" y="32" width="1" height="30"/><rect x="345" y="32" width="1" height="93"/><rect x="658" y="32" width="1" height="30"/><rect x="807" y="32" width="20" height="156"/><rect x="866" y="32" width="20" height="125"/><rect x="865" y="34" width="1" height="26"/><rect x="0" y="35" width="1" height="23"/><rect x="626" y="35" width="1" height="23"/><rect x="806" y="35" width="1" height="23"/><rect x="377" y="36" width="1" height="21"/><rect x="827" y="36" width="1" height="21"/><rect x="344" y="37" width="1" height="19"/><rect x="659" y="38" width="1" height="17"/><rect x="33" y="39" width="1" height="16"/><rect x="886" y="39" width="1" height="16"/><rect x="864" y="42" width="1" height="7"/><rect x="32" y="63" width="1" height="30"/><rect x="48" y="63" width="47" height="31"/><rect x="181" y="63" width="71" height="31"/><rect x="314" y="63" width="31" height="31"/><rect x="377" y="63" width="47" height="31"/><rect x="502" y="63" width="78" height="31"/><rect x="658" y="63" width="1" height="30"/><rect x="670" y="63" width="63" height="31"/><rect x="795" y="63" width="12" height="93"/><rect x="886" y="63" width="11" height="94"/><rect x="501" y="65" width="1" height="26"/><rect x="580" y="65" width="1" height="27"/><rect x="865" y="65" width="1" height="26"/><rect x="897" y="65" width="1" height="26"/><rect x="0" y="66" width="1" height="24"/><rect x="47" y="66" width="1" height="24"/><rect x="95" y="66" width="1" height="24"/><rect x="180" y="66" width="1" height="24"/><rect x="313" y="66" width="1" height="24"/><rect x="626" y="66" width="1" height="24"/><rect x="669" y="67" width="1" height="22"/><rect x="733" y="67" width="1" height="22"/><rect x="424" y="68" width="1" height="21"/><rect x="794" y="68" width="1" height="20"/><rect x="827" y="68" width="1" height="21"/><rect x="252" y="69" width="1" height="18"/><rect x="659" y="69" width="1" height="18"/><rect x="33" y="70" width="1" height="17"/><rect x="581" y="73" width="1" height="9"/><rect x="864" y="74" width="1" height="6"/><rect x="898" y="74" width="1" height="7"/><rect x="500" y="76" width="1" height="3"/><rect x="32" y="94" width="16" height="31"/><rect x="79" y="94" width="32" height="31"/><rect x="236" y="94" width="31" height="94"/><rect x="486" y="94" width="32" height="31"/><rect x="565" y="94" width="31" height="31"/><rect x="658" y="94" width="12" height="31"/><rect x="721" y="94" width="31" height="125"/><rect x="564" y="95" width="1" height="30"/><rect x="752" y="95" width="1" height="29"/><rect x="235" y="96" width="1" height="27"/><rect x="267" y="96" width="1" height="27"/><rect x="670" y="96" width="1" height="27"/><rect x="865" y="96" width="1" height="27"/><rect x="897" y="96" width="1" height="27"/><rect x="0" y="97" width="1" height="24"/><rect x="48" y="97" width="1" height="25"/><rect x="720" y="97" width="1" height="24"/><rect x="596" y="98" width="1" height="23"/><rect x="626" y="98" width="1" height="23"/><rect x="78" y="99" width="1" height="20"/><rect x="111" y="99" width="1" height="21"/><rect x="377" y="99" width="1" height="21"/><rect x="485" y="99" width="1" height="21"/><rect x="827" y="99" width="1" height="21"/><rect x="344" y="100" width="1" height="19"/><rect x="518" y="100" width="1" height="19"/><rect x="794" y="100" width="1" height="19"/><rect x="563" y="101" width="1" height="18"/><rect x="753" y="102" width="1" height="15"/><rect x="671" y="104" width="1" height="10"/><rect x="268" y="105" width="1" height="8"/><rect x="864" y="105" width="1" height="7"/><rect x="898" y="105" width="1" height="7"/><rect x="234" y="106" width="1" height="5"/><rect x="49" y="108" width="1" height="3"/><rect x="32" y="125" width="1" height="31"/><rect x="95" y="125" width="31" height="32"/><rect x="174" y="125" width="62" height="32"/><rect x="471" y="125" width="31" height="32"/><rect x="658" y="125" width="1" height="31"/><rect x="126" y="126" width="1" height="29"/><rect x="173" y="126" width="1" height="93"/><rect x="345" y="126" width="1" height="30"/><rect x="470" y="126" width="1" height="29"/><rect x="752" y="126" width="1" height="30"/><rect x="267" y="127" width="1" height="27"/><rect x="865" y="127" width="1" height="27"/><rect x="897" y="127" width="1" height="27"/><rect x="0" y="128" width="1" height="24"/><rect x="94" y="128" width="1" height="25"/><rect x="502" y="128" width="1" height="25"/><rect x="720" y="128" width="1" height="25"/><rect x="626" y="129" width="1" height="23"/><rect x="172" y="130" width="1" height="21"/><rect x="377" y="130" width="1" height="21"/><rect x="827" y="130" width="1" height="21"/><rect x="344" y="131" width="1" height="19"/><rect x="794" y="131" width="1" height="19"/><rect x="659" y="132" width="1" height="17"/><rect x="33" y="133" width="1" height="16"/><rect x="469" y="133" width="1" height="16"/><rect x="753" y="133" width="1" height="16"/><rect x="127" y="134" width="1" height="13"/><rect x="268" y="136" width="1" height="8"/><rect x="864" y="137" width="1" height="6"/><rect x="898" y="137" width="1" height="7"/><rect x="93" y="140" width="1" height="1"/><rect x="796" y="156" width="11" height="1"/><rect x="32" y="157" width="1" height="30"/><rect x="79" y="157" width="32" height="31"/><rect x="158" y="157" width="15" height="31"/><rect x="174" y="157" width="15" height="62"/><rect x="345" y="157" width="1" height="31"/><rect x="486" y="157" width="32" height="31"/><rect x="564" y="157" width="32" height="30"/><rect x="658" y="157" width="1" height="30"/><rect x="866" y="157" width="19" height="31"/><rect x="157" y="158" width="1" height="29"/><rect x="752" y="158" width="1" height="29"/><rect x="885" y="158" width="1" height="29"/><rect x="235" y="159" width="1" height="26"/><rect x="267" y="159" width="1" height="27"/><rect x="865" y="159" width="1" height="26"/><rect x="0" y="160" width="1" height="24"/><rect x="189" y="160" width="1" height="24"/><rect x="596" y="160" width="1" height="24"/><rect x="626" y="160" width="1" height="24"/><rect x="720" y="160" width="1" height="24"/><rect x="806" y="160" width="1" height="24"/><rect x="377" y="161" width="1" height="22"/><rect x="485" y="161" width="1" height="22"/><rect x="78" y="162" width="1" height="20"/><rect x="111" y="162" width="1" height="20"/><rect x="518" y="162" width="1" height="20"/><rect x="827" y="162" width="1" height="21"/><rect x="344" y="163" width="1" height="19"/><rect x="563" y="163" width="1" height="18"/><rect x="659" y="163" width="1" height="18"/><rect x="33" y="164" width="1" height="17"/><rect x="156" y="164" width="1" height="17"/><rect x="753" y="164" width="1" height="16"/><rect x="886" y="164" width="1" height="16"/><rect x="268" y="167" width="1" height="8"/><rect x="234" y="168" width="1" height="6"/><rect x="864" y="168" width="1" height="6"/><rect x="565" y="187" width="31" height="1"/><rect x="1" y="188" width="16" height="31"/><rect x="32" y="188" width="47" height="31"/><rect x="189" y="188" width="47" height="31"/><rect x="252" y="188" width="31" height="31"/><rect x="361" y="188" width="63" height="31"/><rect x="502" y="188" width="78" height="31"/><rect x="658" y="188" width="1" height="31"/><rect x="827" y="188" width="39" height="31"/><rect x="79" y="189" width="1" height="29"/><rect x="251" y="189" width="1" height="30"/><rect x="752" y="189" width="1" height="29"/><rect x="826" y="189" width="1" height="29"/><rect x="580" y="190" width="1" height="27"/><rect x="0" y="191" width="1" height="24"/><rect x="360" y="191" width="1" height="24"/><rect x="501" y="191" width="1" height="25"/><rect x="720" y="191" width="1" height="24"/><rect x="236" y="192" width="1" height="23"/><rect x="283" y="192" width="1" height="23"/><rect x="626" y="192" width="1" height="23"/><rect x="866" y="192" width="1" height="22"/><rect x="17" y="193" width="1" height="21"/><rect x="172" y="193" width="1" height="21"/><rect x="424" y="193" width="1" height="21"/><rect x="31" y="194" width="1" height="19"/><rect x="250" y="194" width="1" height="19"/><rect x="659" y="195" width="1" height="17"/><rect x="753" y="196" width="1" height="15"/><rect x="80" y="197" width="1" height="13"/><rect x="825" y="197" width="1" height="12"/><rect x="581" y="198" width="1" height="9"/><rect x="500" y="202" width="1" height="2"/></svg>
